# xmcd
#
# Track frame offsets:
#	150
#	15385
#	28895
#	43200
#	59100
#	72610
#	87682
#	105237
#	113995
#	121751
#	134182
#	146660
#
# Disc length: 2157 seconds
#
# Revision: 0
# Processed by: cddbd v1.5.1PL2 Copyright (c) Steve Scherf et al.
# Submitted via: dBpowerAMP V4.0
#
DISCID=bb086b0c
DTITLE=Little Joe - Chicanisimo - Little Joe - Chicanisimo
DYEAR=1900
DGENRE=Tejano
TTITLE0=1 - Hijo De Su
TTITLE1=2 - El Taconazo
TTITLE2=3 - Echale Un Cinco Al Piano
TTITLE3=4 - Hay Un Momento
TTITLE4=5 - Emocion Pasajera
TTITLE5=6 - Que Dios Nos Perdone
TTITLE6=7 - Sufriendo y Penando
TTITLE7=8 - Just Because
TTITLE8=9 - Wasted Days And Wasted Nights
TTITLE9=10 - Tres Ramitas
TTITLE10=11 - Al Baile Me Fui - Instrumental
TTITLE11=12 - Al Baile Me Fui - Vocal Version
EXTD=This should be a Tejano Genre, this is what we call chicano or tejano music
EXTT0=
EXTT1=
EXTT2=
EXTT3=
EXTT4=
EXTT5=
EXTT6=
EXTT7=
EXTT8=
EXTT9=
EXTT10=
EXTT11=
PLAYORDER=
